<?xml version="1.0" standalone="no"?>
<!DOCTYPE svg PUBLIC "-//W3C//DTD SVG 20010904//EN"
 "http://www.w3.org/TR/2001/REC-SVG-20010904/DTD/svg10.dtd">
<svg version="1.0" xmlns="http://www.w3.org/2000/svg"
 width="512.000000pt" height="479.000000pt" viewBox="0 0 512.000000 479.000000"
 preserveAspectRatio="xMidYMid meet">
<metadata>
Created by potrace 1.14, written by Peter Selinger 2001-2017
</metadata>
<g transform="translate(0.000000,479.000000) scale(0.100000,-0.100000)"
fill="#000000" stroke="none">
<path d="M2400 4773 c-326 -33 -651 -130 -907 -270 l-52 -29 34 0 c77 0 116
-46 123 -144 8 -122 -37 -190 -125 -190 -38 0 -50 5 -79 34 -34 34 -34 34 -34
128 0 68 4 99 16 116 22 31 12 28 -66 -23 l-69 -44 -3 -103 c-3 -98 -4 -103
-25 -106 -21 -3 -22 0 -25 83 l-3 86 -95 -79 c-120 -100 -267 -251 -359 -366
l-71 -90 0 -123 0 -123 -25 0 c-25 0 -25 1 -25 83 l-1 82 -35 -55 c-102 -156
-255 -523 -284 -680 -5 -25 -16 -76 -25 -115 -26 -114 -45 -310 -45 -460 0
-572 205 -1122 587 -1573 28 -33 29 -33 58 -18 39 20 80 20 115 0 44 -27 60
-64 60 -142 0 -50 4 -73 15 -82 13 -11 15 -2 15 71 1 93 11 120 56 150 37 24
80 24 122 -1 42 -26 62 -74 62 -150 0 -97 -35 -155 -101 -169 -30 -6 -28 -8
87 -85 210 -138 486 -261 723 -321 226 -57 330 -67 646 -62 279 4 296 5 437
36 395 85 740 251 1048 504 l70 58 0 75 c0 60 -3 74 -15 74 -13 0 -11 6 7 30
12 16 30 30 40 30 16 0 18 -10 18 -82 l1 -83 61 65 c194 209 332 405 440 629
87 180 165 407 149 433 -6 10 -11 51 -11 91 0 75 16 117 45 117 8 0 18 8 24
17 17 34 34 238 34 403 -2 454 -134 902 -378 1280 l-55 85 0 -67 c0 -79 -10
-110 -46 -143 -21 -20 -38 -25 -76 -25 -43 0 -54 4 -84 34 -34 34 -34 34 -34
129 0 88 2 98 26 126 27 32 80 53 114 44 11 -3 20 -1 20 3 0 16 -185 217 -261
285 -41 36 -110 94 -154 129 l-80 63 -3 -102 c-3 -100 -3 -101 -27 -101 -24 0
-24 0 -27 123 l-3 122 -123 72 c-374 218 -785 326 -1222 321 -91 0 -181 -3
-200 -5z m-590 -322 c39 -28 50 -60 50 -144 0 -119 -34 -167 -118 -167 -87 0
-122 48 -122 167 0 61 5 85 20 111 37 60 113 75 170 33z m248 -144 l2 -167
-25 0 -25 0 0 135 c0 113 -2 135 -15 135 -8 0 -15 3 -15 7 0 13 54 63 65 60 6
-2 11 -65 13 -170z m576 159 c61 -26 76 -57 76 -162 0 -88 -2 -95 -27 -124
-52 -57 -124 -56 -178 0 -28 29 -30 38 -33 113 -4 98 14 143 68 169 42 22 51
22 94 4z m271 0 c53 -23 75 -67 75 -154 0 -129 -43 -178 -148 -173 -13 0 -39
16 -58 35 -34 34 -34 34 -34 129 0 105 14 137 74 163 40 17 49 17 91 0z m273
-159 l2 -167 -25 0 -25 0 0 135 c0 113 -2 135 -15 135 -20 0 -19 6 6 41 12 17
28 29 38 27 14 -3 16 -25 19 -171z m307 149 c40 -26 57 -80 53 -167 -3 -70 -6
-81 -33 -109 -54 -56 -126 -57 -177 0 -26 29 -28 36 -28 125 0 91 1 96 30 129
42 48 103 56 155 22z m265 -5 c39 -28 50 -60 50 -144 0 -119 -34 -167 -118
-167 -86 0 -122 51 -122 172 0 56 5 81 20 106 37 60 113 75 170 33z m-2784
-608 c35 -23 54 -74 54 -146 0 -116 -38 -167 -122 -167 -43 0 -54 4 -84 34
-34 34 -34 34 -34 129 0 82 3 98 22 122 41 53 109 64 164 28z m238 13 c62 -26
76 -56 76 -163 0 -95 0 -95 -34 -129 -29 -29 -41 -34 -80 -34 -88 0 -126 50
-126 165 0 110 36 161 123 174 4 0 22 -5 41 -13z m295 -14 c34 -23 51 -71 51
-146 0 -115 -38 -166 -122 -166 -43 0 -54 4 -84 34 -34 34 -34 34 -34 129 0
82 3 98 22 122 42 54 109 64 167 27z m238 13 c12 -3 34 -20 48 -36 23 -28 25
-38 25 -126 0 -95 0 -95 -34 -129 -29 -29 -41 -34 -81 -34 -93 0 -130 56 -123
185 4 86 25 123 79 142 33 11 41 11 86 -2z m273 -156 l0 -170 -22 3 c-22 3
-23 7 -26 136 -1 77 -7 132 -12 132 -16 0 -12 15 11 44 11 14 27 26 35 26 12
0 14 -29 14 -171z m310 142 c40 -28 50 -59 50 -154 0 -88 0 -89 -34 -123 -29
-29 -41 -34 -83 -34 -90 0 -123 46 -123 168 0 66 4 85 23 113 38 57 110 69
167 30z m263 4 c33 -23 48 -54 54 -109 14 -135 -27 -206 -119 -206 -44 0 -54
4 -84 34 -34 34 -34 34 -34 129 0 82 3 98 22 122 41 52 111 65 161 30z m252
-145 c0 -163 0 -165 -22 -168 -23 -3 -23 -3 -23 132 0 114 -2 136 -15 136 -20
0 -19 6 6 41 12 17 28 29 38 27 14 -3 16 -23 16 -168z m293 -3 l2 -167 -25 0
-25 0 0 135 c0 113 -2 135 -15 135 -8 0 -15 3 -15 7 0 13 54 63 65 60 6 -2 11
-65 13 -170z m311 145 c34 -23 51 -71 51 -147 0 -116 -36 -165 -122 -165 -39
0 -54 6 -80 29 -32 29 -33 31 -36 128 -3 89 -2 101 19 127 43 55 110 66 168
28z m235 14 c62 -26 76 -56 76 -163 0 -95 0 -95 -34 -129 -30 -30 -40 -34 -84
-34 -83 0 -122 53 -122 165 0 69 11 104 41 135 25 25 39 31 82 39 4 0 22 -5
41 -13z m276 -156 l0 -170 -25 0 -25 0 0 135 c0 83 -4 135 -10 135 -5 0 -10 4
-10 9 0 16 41 61 56 61 12 0 14 -29 14 -170z m287 155 c12 -3 34 -20 48 -36
23 -28 25 -38 25 -126 0 -95 0 -95 -34 -129 -30 -30 -41 -34 -84 -34 -91 0
-127 55 -120 185 4 86 25 123 79 142 33 11 41 11 86 -2z m-3641 -621 c40 -27
54 -65 54 -151 0 -93 -21 -136 -77 -160 -48 -20 -101 -5 -137 38 -23 28 -26
39 -26 115 0 91 13 131 52 158 29 21 102 20 134 0z m280 -18 c34 -34 34 -34
34 -130 0 -95 0 -97 -33 -133 -29 -31 -40 -36 -78 -36 -92 0 -134 60 -127 182
3 42 11 86 18 97 21 33 61 53 109 54 36 0 49 -6 77 -34z m532 -128 c-3 -160
-3 -163 -25 -166 -23 -3 -23 -3 -23 132 0 114 -2 136 -15 136 -19 0 -19 6 3
35 9 14 27 25 40 25 l22 0 -2 -162z m311 137 c40 -34 55 -83 49 -165 -6 -82
-32 -125 -85 -139 -51 -14 -89 -3 -123 36 -29 32 -30 37 -30 129 0 96 0 96 34
130 29 29 41 34 79 34 34 0 53 -6 76 -25z m263 5 c39 -30 50 -70 47 -164 -4
-73 -7 -88 -28 -110 -55 -59 -144 -52 -188 13 -19 28 -23 47 -23 107 0 86 11
121 48 151 36 30 109 31 144 3z m248 -145 l0 -165 -25 0 -25 0 0 135 c0 83 -4
135 -10 135 -5 0 -10 5 -10 12 0 19 31 48 52 48 17 0 18 -11 18 -165z m308
149 c38 -26 52 -67 52 -152 0 -66 -4 -85 -23 -113 -44 -65 -133 -72 -188 -13
-21 22 -24 37 -28 110 -3 94 8 134 47 164 31 25 108 27 140 4z m278 -18 l34
-34 0 -100 c0 -98 -1 -101 -30 -130 -50 -50 -120 -51 -169 -1 -31 30 -41 65
-41 141 0 98 48 158 127 158 38 0 50 -5 79 -34z m234 -132 l0 -165 -22 3 c-22
3 -23 7 -26 133 -2 78 -7 132 -13 136 -16 10 19 59 42 59 18 0 19 -10 19 -166z
m300 1 l0 -165 -25 0 -25 0 0 135 c0 113 -2 135 -15 135 -8 0 -15 3 -15 7 0
15 45 53 62 53 17 0 18 -12 18 -165z m299 150 c45 -23 64 -74 59 -165 -4 -93
-24 -128 -83 -148 -49 -16 -95 -2 -130 39 -23 28 -25 38 -25 126 0 95 0 95 34
129 28 28 42 34 75 34 23 0 55 -7 70 -15z m261 -150 l0 -165 -25 0 -25 0 0
135 c0 113 -2 135 -15 135 -19 0 -19 6 3 35 9 14 27 25 40 25 22 0 22 0 22
-165z m318 131 l37 -34 0 -90 c0 -129 -33 -175 -122 -175 -75 0 -123 66 -123
168 0 103 47 165 126 165 36 0 51 -6 82 -34z m254 14 c39 -30 50 -70 47 -164
-4 -73 -7 -88 -28 -110 -37 -39 -88 -52 -134 -33 -56 24 -77 67 -77 160 0 86
8 111 48 144 35 30 109 31 144 3z m248 -145 l0 -165 -25 0 -25 0 0 134 c0 115
-2 135 -16 138 -14 3 -13 7 6 31 12 15 30 27 41 27 18 0 19 -9 19 -165z
m-4248 -484 c26 -30 28 -36 28 -126 0 -91 -1 -96 -31 -129 -56 -64 -144 -56
-190 16 -17 28 -20 46 -17 121 3 89 3 89 42 124 36 33 42 35 89 30 41 -3 56
-10 79 -36z m255 5 c36 -33 38 -37 41 -109 2 -42 -1 -91 -8 -111 -22 -68 -99
-102 -162 -72 -54 26 -68 60 -68 166 0 91 0 92 34 126 29 29 41 34 80 34 39 0
52 -6 83 -34z m269 -2 c34 -35 34 -36 34 -129 0 -91 -1 -96 -31 -129 -37 -43
-81 -54 -132 -32 -55 23 -77 66 -77 154 0 122 37 171 129 172 37 0 48 -5 77
-36z m261 3 c34 -32 36 -38 41 -109 3 -45 0 -90 -7 -111 -23 -69 -99 -103
-163 -73 -54 26 -68 60 -68 166 0 91 0 92 34 126 29 29 41 34 80 34 38 0 52
-6 83 -33z m243 -132 l0 -165 -25 0 -25 0 0 135 c0 113 -2 135 -15 135 -8 0
-15 3 -15 7 0 15 45 53 62 53 17 0 18 -12 18 -165z m316 131 l34 -34 0 -100
c0 -85 -3 -103 -21 -125 -47 -60 -151 -56 -190 7 -15 25 -19 50 -19 125 0 93
0 93 34 127 29 29 41 34 81 34 40 0 52 -5 81 -34z m244 19 c45 -23 60 -62 60
-158 0 -70 -3 -89 -21 -111 -24 -31 -69 -56 -99 -56 -34 0 -79 29 -100 63 -23
37 -28 152 -9 206 22 62 105 89 169 56z m260 -150 l0 -165 -25 0 -25 0 0 134
c0 115 -2 135 -16 138 -14 3 -13 7 6 31 12 15 30 27 41 27 18 0 19 -9 19 -165z
m290 0 l0 -165 -25 0 -25 0 0 134 c0 93 -4 136 -12 138 -17 6 21 58 43 58 18
0 19 -10 19 -165z m326 131 c34 -34 34 -35 34 -126 0 -106 -14 -140 -68 -166
-63 -30 -140 4 -162 72 -7 20 -10 69 -8 111 3 72 5 76 41 109 31 28 44 34 83
34 39 0 51 -5 80 -34z m245 17 c42 -25 59 -69 59 -155 0 -86 -21 -129 -74
-154 -48 -24 -97 -12 -135 32 -30 34 -31 38 -31 130 0 96 0 96 34 130 28 28
42 34 76 34 23 0 55 -8 71 -17z m259 -148 l0 -165 -25 0 -25 0 0 135 c0 113
-2 135 -15 135 -8 0 -15 3 -15 7 0 15 45 53 62 53 17 0 18 -12 18 -165z m305
143 c15 -12 34 -36 41 -54 18 -43 18 -145 0 -188 -27 -64 -98 -90 -160 -61
-53 25 -66 58 -66 166 0 90 0 91 34 125 29 29 41 34 79 34 30 0 53 -7 72 -22z
m261 6 c41 -28 54 -65 54 -158 0 -81 -2 -87 -31 -120 -39 -45 -84 -55 -136
-30 -52 26 -73 71 -73 157 0 113 39 166 123 167 21 0 49 -7 63 -16z m254 -149
l0 -165 -25 0 -25 0 0 135 c0 116 -2 135 -16 135 -13 0 -12 5 6 30 12 17 30
30 41 30 18 0 19 -9 19 -165z m295 0 c0 -158 0 -160 -22 -163 -23 -3 -23 -3
-23 132 0 114 -2 136 -15 136 -19 0 -19 5 1 36 11 16 24 24 38 22 20 -3 21 -8
21 -163z m321 131 c34 -34 34 -35 34 -125 0 -61 -5 -102 -15 -120 -19 -37 -77
-65 -120 -57 -72 14 -105 67 -105 174 0 102 47 162 127 162 38 0 50 -5 79 -34z
m-4174 -602 c32 -29 48 -77 47 -141 0 -79 -17 -123 -58 -150 -43 -29 -89 -29
-132 0 -45 30 -62 82 -56 170 5 74 24 111 68 135 32 17 104 9 131 -14z m248
11 c48 -25 62 -65 58 -166 -3 -85 -4 -90 -36 -121 -28 -28 -39 -33 -82 -33
-43 0 -54 5 -82 33 -31 31 -33 37 -37 119 -2 68 1 94 13 118 33 60 105 82 166
50z m260 -150 l0 -165 -25 0 -25 0 0 135 c0 116 -2 135 -16 135 -13 0 -12 5 6
30 12 17 30 30 41 30 18 0 19 -9 19 -165z m590 150 c45 -24 60 -62 60 -157 -1
-92 -11 -119 -56 -149 -37 -24 -80 -24 -122 1 -48 29 -65 77 -60 173 3 76 4
80 40 113 43 38 88 45 138 19z m260 -150 l0 -165 -25 0 -25 0 0 135 c0 115 -2
135 -15 135 -13 0 -11 6 7 30 12 17 30 30 40 30 17 0 18 -12 18 -165z m300
150 c46 -24 60 -62 60 -160 0 -83 -1 -86 -34 -123 -31 -33 -39 -37 -85 -37
-44 0 -55 4 -83 33 -31 31 -33 37 -36 116 -4 96 13 147 57 171 34 19 85 19
121 0z m275 -7 c38 -29 55 -76 55 -148 0 -76 -20 -124 -62 -150 -58 -35 -126
-20 -164 37 -15 22 -19 46 -19 113 1 95 11 122 58 150 43 26 97 26 132 -2z
m255 -143 l0 -165 -25 0 -25 0 0 135 c0 113 -2 135 -15 135 -19 0 -19 6 3 35
9 14 27 25 40 25 22 0 22 0 22 -165z m230 0 l0 -165 -25 0 -25 0 0 135 c0 116
-2 135 -16 135 -13 0 -12 5 6 30 12 17 30 30 41 30 18 0 19 -9 19 -165z m301
148 c42 -25 59 -69 59 -155 0 -86 -21 -129 -74 -154 -48 -24 -97 -12 -135 32
-29 33 -31 39 -31 120 0 96 14 135 58 158 36 20 88 20 123 -1z m259 2 c50 -26
60 -51 60 -148 0 -100 -14 -138 -60 -162 -62 -32 -139 -4 -166 60 -18 44 -18
146 0 189 28 68 101 95 166 61z m288 -19 l37 -34 0 -101 c0 -99 -1 -101 -30
-131 -57 -56 -149 -47 -188 19 -22 38 -24 179 -2 221 19 37 59 59 108 60 29 0
46 -8 75 -34z m242 19 c51 -26 60 -50 60 -153 0 -102 -11 -132 -61 -158 -61
-31 -138 -2 -165 61 -18 44 -18 146 0 189 28 68 101 95 166 61z m560 0 c45
-23 60 -62 60 -155 0 -91 -14 -126 -60 -154 -37 -21 -78 -20 -117 4 -51 31
-65 69 -61 167 3 83 4 85 40 119 43 38 88 45 138 19z m-4032 -763 l2 -162 -25
0 -25 0 0 135 c0 113 -2 135 -15 135 -21 0 -19 10 7 37 12 13 29 22 38 21 13
-3 15 -29 18 -166z m292 153 c51 -26 60 -50 60 -155 0 -105 -9 -129 -60 -155
-66 -34 -144 -1 -168 70 -19 56 -11 169 15 203 38 51 98 66 153 37z m261 -150
l0 -160 -25 -3 -26 -3 0 135 c0 98 -3 136 -12 139 -9 3 -5 13 12 31 46 50 51
36 51 -139z m298 151 c50 -26 61 -55 61 -160 0 -89 -1 -95 -28 -124 -71 -76
-188 -40 -208 64 -11 60 0 152 23 182 38 51 97 66 152 38z m295 -25 c31 -31
31 -33 31 -132 l0 -101 -37 -34 c-28 -25 -47 -34 -73 -34 -48 0 -91 24 -110
60 -20 39 -20 181 0 220 35 68 131 78 189 21z m236 -124 c0 -90 -3 -166 -6
-169 -3 -3 -14 -4 -25 -1 -18 5 -19 15 -19 138 0 114 -2 134 -16 137 -14 3
-13 7 6 31 12 15 30 27 41 27 18 0 19 -9 19 -163z m270 0 c0 -90 -3 -166 -6
-169 -3 -3 -14 -4 -25 -1 -18 5 -19 15 -19 139 0 115 -2 134 -16 134 -13 0
-12 5 6 30 12 17 30 30 41 30 18 0 19 -9 19 -163z m290 150 c48 -24 70 -72 70
-154 0 -81 -14 -119 -56 -152 -50 -39 -138 -18 -170 41 -19 33 -18 181 1 218
27 53 100 75 155 47z m269 -1 c50 -26 61 -55 61 -160 0 -89 -1 -95 -28 -124
-71 -76 -188 -40 -208 64 -11 60 0 152 23 182 38 51 97 66 152 38z m295 -25
c31 -31 31 -33 31 -132 l0 -101 -37 -34 c-28 -25 -47 -34 -73 -34 -48 0 -91
24 -110 60 -20 39 -20 181 0 220 35 68 131 78 189 21z m236 24 c51 -26 60 -50
60 -156 0 -93 -1 -98 -28 -127 -71 -76 -188 -40 -208 64 -11 60 0 152 23 182
38 51 97 66 153 37z m560 0 c45 -23 60 -62 60 -155 0 -53 -5 -91 -15 -110 -30
-58 -119 -79 -169 -39 -42 33 -56 71 -56 152 0 61 4 80 23 108 39 58 98 74
157 44z m282 -11 c32 -29 48 -77 48 -144 0 -102 -36 -157 -108 -167 -49 -7
-96 16 -117 57 -20 39 -20 181 0 220 8 16 28 36 43 45 35 20 106 14 134 -11z
m246 -142 l2 -162 -25 0 -25 0 0 135 c0 113 -2 135 -15 135 -21 0 -19 10 7 37
12 13 29 22 38 21 13 -3 15 -29 18 -166z m-3073 -612 c0 -163 0 -165 -22 -168
-23 -3 -23 -3 -23 137 0 120 -2 140 -16 143 -14 3 -13 7 6 31 12 15 30 27 39
25 14 -3 16 -23 16 -168z m295 155 c51 -26 60 -50 60 -158 l0 -99 -35 -35
c-33 -33 -38 -35 -87 -31 -42 4 -57 11 -80 37 -27 30 -28 36 -28 127 0 71 4
101 16 120 34 51 99 67 154 39z m297 -29 c32 -34 33 -39 33 -121 0 -98 -14
-136 -60 -160 -63 -32 -136 -9 -166 53 -12 25 -15 56 -12 117 3 72 6 87 28
110 34 36 57 46 105 40 30 -3 48 -13 72 -39z m233 -127 l0 -170 -22 3 c-22 3
-23 6 -26 141 -2 114 -5 137 -18 137 -11 0 -10 6 8 30 12 17 30 30 40 30 17 0
18 -13 18 -171z m290 0 l0 -170 -22 3 c-22 3 -23 7 -26 138 -2 90 -6 137 -15
142 -8 5 -5 14 13 32 47 51 50 41 50 -145z m300 156 c46 -24 60 -62 60 -162 0
-97 -10 -122 -60 -148 -65 -34 -138 -7 -166 61 -19 45 -18 157 1 195 32 60
106 85 165 54z m260 2 c13 -7 35 -28 48 -47 21 -31 23 -44 20 -123 -3 -88 -3
-89 -40 -123 -28 -25 -47 -34 -73 -34 -48 0 -91 24 -110 60 -21 41 -21 183 1
219 32 55 99 76 154 48z m265 -157 c0 -163 0 -165 -22 -168 -23 -3 -23 -3 -23
137 0 121 -2 141 -16 141 -13 0 -12 5 6 31 13 17 29 29 39 27 14 -3 16 -23 16
-168z m303 150 c42 -26 62 -74 62 -150 0 -102 -36 -157 -108 -167 -44 -6 -92
14 -116 49 -23 32 -22 199 0 234 36 54 105 68 162 34z m283 -19 l39 -39 0 -86
c0 -99 -14 -137 -60 -161 -50 -26 -95 -19 -138 19 l-37 34 0 100 c0 93 2 102
25 127 30 33 54 44 99 44 26 1 42 -8 72 -38z"/>
<path d="M1713 4420 c-33 -13 -43 -42 -43 -119 0 -58 4 -75 20 -91 28 -28 84
-27 104 2 23 33 22 159 -1 186 -22 25 -51 33 -80 22z"/>
<path d="M2562 4420 c-29 -12 -42 -48 -42 -119 0 -74 25 -111 74 -111 53 0 66
24 66 117 0 64 -4 83 -17 95 -25 22 -54 28 -81 18z"/>
<path d="M2817 4410 c-25 -20 -27 -26 -27 -104 0 -68 3 -86 18 -99 26 -24 77
-21 102 5 27 30 29 155 3 186 -27 32 -64 37 -96 12z"/>
<path d="M3376 4409 c-24 -19 -26 -26 -26 -103 0 -94 13 -116 68 -116 47 0 72
38 72 111 0 69 -13 103 -47 118 -32 15 -36 14 -67 -10z"/>
<path d="M3653 4420 c-33 -13 -43 -42 -43 -119 0 -84 18 -111 74 -111 51 0 66
27 66 121 0 72 -2 79 -26 98 -29 23 -38 24 -71 11z"/>
<path d="M880 3813 c-42 -16 -50 -34 -50 -118 0 -92 13 -115 66 -115 55 0 74
32 74 120 0 55 -3 65 -29 91 -30 30 -35 31 -61 22z"/>
<path d="M1134 3808 c-30 -14 -44 -50 -44 -114 0 -83 20 -114 76 -114 50 0 64
25 64 117 0 64 -4 83 -17 95 -25 22 -55 28 -79 16z"/>
<path d="M1410 3813 c-42 -16 -50 -34 -50 -118 0 -93 13 -115 68 -115 52 0 72
32 72 111 0 37 -3 75 -6 84 -5 13 -56 47 -66 44 -2 0 -10 -3 -18 -6z"/>
<path d="M1664 3808 c-30 -14 -44 -50 -44 -113 0 -89 26 -124 85 -116 44 6 55
29 55 116 0 65 -4 85 -17 97 -25 22 -55 28 -79 16z"/>
<path d="M2223 3810 c-33 -13 -43 -41 -43 -117 0 -88 16 -113 70 -113 55 0 70
25 70 116 0 54 -4 77 -17 92 -22 25 -51 33 -80 22z"/>
<path d="M2495 3810 c-40 -15 -50 -40 -50 -115 0 -85 18 -115 69 -115 57 0 76
31 76 120 0 55 -3 65 -29 91 -32 31 -35 32 -66 19z"/>
<path d="M3343 3810 c-33 -13 -43 -41 -43 -117 0 -85 16 -113 66 -113 56 0 74
27 74 109 0 38 -3 77 -6 86 -5 13 -55 47 -66 44 -2 0 -13 -4 -25 -9z"/>
<path d="M3590 3791 c-27 -26 -30 -36 -30 -91 0 -89 19 -120 76 -120 51 0 69
30 69 116 0 60 -4 77 -20 93 -36 35 -62 35 -95 2z"/>
<path d="M4165 3808 c-37 -20 -45 -40 -45 -113 0 -58 4 -75 20 -93 21 -23 31
-26 65 -22 44 4 55 28 55 115 0 65 -4 85 -17 97 -26 23 -55 29 -78 16z"/>
<path d="M476 3178 c-11 -16 -16 -46 -16 -99 0 -72 2 -79 27 -99 32 -25 69
-20 96 12 26 31 24 161 -3 188 -28 28 -84 27 -104 -2z"/>
<path d="M773 3199 c-36 -13 -53 -49 -53 -111 0 -71 14 -103 52 -119 25 -10
33 -9 56 8 25 19 27 26 30 103 2 65 -1 86 -13 100 -21 23 -45 29 -72 19z"/>
<path d="M1624 3200 c-38 -15 -45 -34 -42 -120 3 -77 5 -84 30 -103 23 -17 31
-18 56 -8 38 16 52 48 52 120 0 83 -41 131 -96 111z"/>
<path d="M1860 3180 c-28 -28 -29 -157 -2 -191 23 -28 73 -30 102 -4 17 15 20
31 20 94 0 94 -15 121 -66 121 -21 0 -42 -8 -54 -20z"/>
<path d="M2420 3180 c-16 -16 -20 -33 -20 -94 0 -89 18 -119 70 -119 52 0 70
30 70 119 0 85 -18 114 -70 114 -17 0 -39 -9 -50 -20z"/>
<path d="M2714 3200 c-36 -14 -46 -37 -46 -108 0 -88 6 -107 42 -122 25 -10
34 -10 55 4 35 23 47 60 43 128 -6 78 -42 117 -94 98z"/>
<path d="M3536 3181 c-14 -15 -16 -35 -14 -101 3 -77 5 -84 30 -103 24 -18 30
-19 58 -7 38 16 50 43 50 116 0 54 -12 92 -34 106 -21 14 -73 8 -90 -11z"/>
<path d="M4125 3200 c-39 -15 -46 -34 -43 -120 3 -76 5 -85 29 -103 28 -20 57
-17 84 9 23 23 21 176 -2 196 -25 21 -45 26 -68 18z"/>
<path d="M4360 3180 c-16 -16 -20 -33 -20 -94 0 -89 18 -119 70 -119 52 0 70
30 70 119 0 85 -18 114 -70 114 -17 0 -39 -9 -50 -20z"/>
<path d="M354 2582 c-23 -15 -34 -53 -34 -117 0 -57 3 -69 25 -90 30 -30 54
-31 89 -4 24 19 26 26 26 100 0 66 -3 82 -20 99 -20 20 -65 26 -86 12z"/>
<path d="M607 2572 c-13 -14 -17 -38 -17 -100 0 -75 2 -82 26 -101 35 -27 59
-26 89 4 22 21 25 33 25 93 0 55 -4 75 -21 96 -25 32 -77 36 -102 8z"/>
<path d="M872 2567 c-18 -20 -22 -35 -22 -96 0 -63 3 -75 25 -96 30 -30 54
-31 89 -4 24 19 26 26 26 100 0 66 -3 82 -20 99 -27 27 -71 26 -98 -3z"/>
<path d="M1142 2574 c-20 -14 -22 -24 -22 -99 0 -78 2 -85 26 -104 33 -26 55
-26 85 -2 20 16 24 30 27 92 3 64 1 78 -18 102 -25 31 -63 36 -98 11z"/>
<path d="M1697 2572 c-23 -25 -24 -173 -2 -196 36 -36 98 -26 115 19 18 48 12
139 -11 169 -25 32 -77 36 -102 8z"/>
<path d="M1960 2570 c-16 -16 -20 -33 -20 -95 0 -67 3 -79 25 -100 30 -30 54
-31 89 -4 24 19 26 26 26 100 0 90 -17 119 -70 119 -17 0 -39 -9 -50 -20z"/>
<path d="M2811 2564 c-17 -21 -21 -41 -21 -96 0 -60 3 -72 25 -93 30 -30 54
-31 89 -4 24 19 26 26 26 104 0 75 -2 85 -22 99 -34 24 -73 20 -97 -10z"/>
<path d="M3082 2574 c-20 -14 -22 -24 -22 -99 0 -78 2 -85 26 -104 35 -27 59
-26 89 4 22 21 25 33 25 98 0 64 -3 76 -23 95 -27 26 -64 28 -95 6z"/>
<path d="M3642 2574 c-20 -14 -22 -24 -22 -99 0 -63 4 -88 16 -99 37 -38 96
-27 114 20 18 47 12 139 -11 168 -24 30 -63 34 -97 10z"/>
<path d="M3901 2564 c-17 -21 -21 -41 -21 -96 0 -60 3 -72 25 -93 30 -30 54
-31 89 -4 24 19 26 26 26 100 0 66 -3 82 -20 99 -29 29 -74 26 -99 -6z"/>
<path d="M4751 2564 c-23 -30 -29 -121 -11 -169 23 -60 110 -52 131 12 15 46
5 139 -17 164 -26 29 -78 25 -103 -7z"/>
<path d="M592 1964 c-20 -14 -22 -24 -22 -100 0 -71 3 -87 20 -104 25 -25 61
-26 90 -2 21 17 23 26 21 103 -1 72 -4 87 -22 102 -26 21 -58 22 -87 1z"/>
<path d="M852 1957 c-19 -20 -22 -35 -22 -99 0 -71 2 -78 26 -97 15 -12 34
-21 44 -21 10 0 29 9 44 21 24 19 26 26 26 100 0 66 -3 82 -20 99 -27 27 -71
26 -98 -3z"/>
<path d="M1701 1954 c-17 -21 -21 -41 -21 -96 0 -60 3 -72 25 -93 30 -30 54
-31 89 -4 24 19 26 26 26 100 0 66 -3 82 -20 99 -29 29 -74 26 -99 -6z"/>
<path d="M2261 1954 c-17 -21 -21 -41 -21 -96 0 -60 3 -72 25 -93 30 -30 54
-31 89 -4 24 19 26 26 26 99 0 69 -3 82 -22 100 -31 28 -72 26 -97 -6z"/>
<path d="M2532 1964 c-20 -14 -22 -24 -22 -100 0 -71 3 -87 20 -104 25 -25 61
-26 91 -1 20 16 24 30 27 94 4 70 2 78 -21 101 -30 30 -62 33 -95 10z"/>
<path d="M3320 1960 c-17 -17 -20 -33 -20 -99 0 -74 2 -81 26 -100 35 -27 59
-26 89 4 22 21 25 33 25 93 0 55 -4 75 -21 96 -25 32 -70 35 -99 6z"/>
<path d="M3585 1955 c-21 -20 -25 -34 -25 -84 0 -74 12 -108 44 -122 59 -27
106 22 106 109 0 106 -66 157 -125 97z"/>
<path d="M3850 1960 c-17 -17 -20 -33 -20 -98 0 -69 3 -81 23 -100 30 -29 62
-28 92 3 22 21 25 33 25 98 0 64 -3 76 -23 95 -29 27 -71 28 -97 2z"/>
<path d="M4110 1953 c-19 -24 -21 -38 -18 -102 3 -62 7 -76 27 -92 30 -25 66
-24 91 1 17 17 20 33 20 104 0 76 -2 86 -22 100 -35 25 -73 20 -98 -11z"/>
<path d="M4671 1954 c-17 -21 -21 -41 -21 -96 0 -60 3 -72 25 -93 30 -31 65
-32 93 -2 19 20 22 35 22 100 0 64 -3 80 -20 97 -29 29 -74 26 -99 -6z"/>
<path d="M939 1351 c-22 -17 -24 -27 -24 -101 0 -74 2 -84 24 -101 13 -10 33
-19 46 -19 13 0 33 9 46 19 22 17 24 27 24 101 0 74 -2 84 -24 101 -13 10 -33
19 -46 19 -13 0 -33 -9 -46 -19z"/>
<path d="M1495 1345 c-22 -21 -25 -33 -25 -93 0 -83 23 -122 71 -122 52 0 69
29 69 120 0 67 -3 83 -20 100 -27 27 -66 25 -95 -5z"/>
<path d="M1762 1350 c-19 -18 -22 -31 -22 -100 0 -91 17 -120 69 -120 48 0 71
39 71 120 0 53 -4 73 -21 94 -25 32 -66 34 -97 6z"/>
<path d="M2592 1347 c-19 -20 -22 -35 -22 -98 0 -66 3 -78 23 -97 32 -30 71
-28 96 4 17 21 21 41 21 96 0 60 -3 72 -25 93 -30 31 -65 32 -93 2z"/>
<path d="M2855 1345 c-22 -21 -25 -33 -25 -95 0 -62 3 -74 25 -95 38 -39 89
-32 109 15 18 44 6 168 -19 186 -28 21 -63 17 -90 -11z"/>
<path d="M3120 1350 c-17 -17 -20 -33 -20 -100 0 -91 17 -120 69 -120 48 0 71
39 71 120 0 53 -4 73 -21 94 -25 32 -70 35 -99 6z"/>
<path d="M3385 1345 c-22 -21 -25 -33 -25 -95 0 -62 3 -74 25 -95 29 -30 68
-32 95 -5 17 17 20 33 20 100 0 67 -3 83 -20 100 -27 27 -66 25 -95 -5z"/>
<path d="M3945 1345 c-22 -21 -25 -33 -25 -93 0 -83 23 -122 71 -122 52 0 69
29 69 120 0 67 -3 83 -20 100 -27 27 -66 25 -95 -5z"/>
<path d="M4210 1350 c-17 -17 -20 -33 -20 -100 0 -67 3 -83 20 -100 27 -27 66
-25 95 5 22 21 25 33 25 95 0 62 -3 74 -25 95 -29 30 -68 32 -95 5z"/>
<path d="M1700 740 c-17 -17 -20 -33 -20 -104 0 -76 2 -86 22 -100 30 -21 61
-20 89 3 22 17 24 27 24 101 0 74 -2 84 -24 101 -30 25 -66 24 -91 -1z"/>
<path d="M1965 735 c-22 -21 -25 -33 -25 -93 0 -55 4 -75 21 -96 26 -33 68
-34 97 -3 19 20 22 35 22 98 0 66 -3 78 -23 97 -30 29 -62 28 -92 -3z"/>
<path d="M2815 735 c-22 -21 -25 -33 -25 -93 0 -83 23 -122 71 -122 52 0 69
29 69 120 0 67 -3 83 -20 100 -27 27 -66 25 -95 -5z"/>
<path d="M3082 740 c-19 -18 -22 -31 -22 -100 0 -91 17 -120 69 -120 48 0 71
39 71 122 0 60 -3 72 -25 93 -29 30 -64 32 -93 5z"/>
<path d="M3640 740 c-17 -17 -20 -33 -20 -100 0 -67 3 -83 20 -100 29 -29 74
-26 100 8 19 23 21 37 18 101 -3 62 -7 76 -27 92 -30 25 -66 24 -91 -1z"/>
<path d="M3905 735 c-22 -21 -25 -33 -25 -93 0 -83 23 -122 71 -122 52 0 69
29 69 118 0 69 -3 81 -23 100 -30 29 -62 28 -92 -3z"/>
<path d="M1436 4409 c-24 -19 -26 -26 -26 -103 0 -94 13 -116 67 -116 49 0 63
25 63 116 0 85 -4 95 -37 113 -30 15 -36 14 -67 -10z"/>
<path d="M4440 3813 c-42 -16 -50 -34 -50 -118 0 -65 4 -85 18 -98 35 -32 92
-22 110 19 15 32 15 126 1 157 -9 19 -51 51 -62 46 -1 0 -9 -3 -17 -6z"/>
<path d="M1140 740 c-17 -17 -20 -33 -20 -100 0 -91 17 -120 69 -120 48 0 71
39 71 122 0 60 -3 72 -25 93 -29 30 -68 32 -95 5z"/>
</g>
</svg>
